<svg width="26" height="24" viewBox="0 0 26 24" fill="none" xmlns="http://www.w3.org/2000/svg">
<path d="M24.45 6.075L22.6875 4.3125L18.2375 8.75L20 10.5125C20 10.5125 24.3125 6.1125 24.45 6.075ZM11.75 0.75H14.25V7H11.75V0.75ZM6 10.5125L7.7625 8.75L3.325 4.3L1.55 6.075C1.6875 6.1125 6 10.5125 6 10.5125ZM23 12H16.75C16.75 14.075 15.075 15.75 13 15.75C10.925 15.75 9.25 14.075 9.25 12H3C1.625 12 0.5 13.125 0.5 14.5V20.75C0.5 22.125 1.625 23.25 3 23.25H23C24.375 23.25 25.5 22.125 25.5 20.75V14.5C25.5 13.125 24.375 12 23 12Z" fill="black"/>
</svg>
