<svg width="25" height="30" viewBox="0 0 25 30" fill="none" xmlns="http://www.w3.org/2000/svg">
<path d="M23.9382 13.5766C23.2488 12.1115 22.2466 10.7965 20.9943 9.71384L19.9609 8.81857C19.9258 8.78901 19.8836 8.76803 19.8379 8.75747C19.7922 8.74692 19.7445 8.74711 19.6989 8.75803C19.6534 8.76896 19.6113 8.79028 19.5765 8.82013C19.5417 8.84998 19.5152 8.88744 19.4993 8.92922L19.0376 10.1799C18.75 10.9645 18.2209 11.7659 17.4716 12.5539C17.4219 12.6042 17.365 12.6176 17.326 12.621C17.2869 12.6243 17.2265 12.6176 17.1733 12.5707C17.1236 12.5304 17.0987 12.4701 17.1023 12.4097C17.2336 10.3912 16.5944 8.11442 15.1953 5.63649C14.0376 3.5777 12.429 1.97157 10.419 0.851643L8.95241 0.0368442C8.76064 -0.0704545 8.51562 0.0703749 8.52627 0.281619L8.60439 1.8911C8.65766 2.99091 8.52272 3.96331 8.20312 4.7714C7.81249 5.76056 7.25141 6.6793 6.53408 7.50416C6.03488 8.07742 5.46907 8.59592 4.8473 9.04993C3.3498 10.1369 2.13215 11.5297 1.28551 13.1239C0.440958 14.7321 0.0010304 16.5027 0 18.2977C0 19.8804 0.330255 21.4128 0.983664 22.8579C1.61458 24.2493 2.52506 25.5121 3.66477 26.5765C4.81534 27.6495 6.15056 28.4945 7.63849 29.0813C9.17968 29.6915 10.8132 30 12.5 30C14.1868 30 15.8203 29.6915 17.3615 29.0846C18.8457 28.5013 20.1955 27.6505 21.3352 26.5799C22.4858 25.5069 23.3878 24.2528 24.0163 22.8613C24.6687 21.4201 25.0034 19.8685 25 18.3011C25 16.6648 24.6449 15.0754 23.9382 13.5766Z" fill="black"/>
</svg>
